<?xml version="1.0" ?><!DOCTYPE svg  PUBLIC '-//W3C//DTD SVG 1.1//EN'  'http://www.w3.org/Graphics/SVG/1.1/DTD/svg11.dtd'><svg width="512px" height="512px" viewBox="0 0 512 512" enable-background="new 0 0 512 512" id="Layer_1" version="1.1" xml:space="preserve" xmlns="http://www.w3.org/2000/svg" xmlns:xlink="http://www.w3.org/1999/xlink"><g><g><path d="M388.771,230.172c-11.196,0-22.179-1.875-32.642-5.571c-38.763-13.673-65.028-50.458-65.396-91.567    c-0.01-0.3-0.013-0.606-0.013-0.902c0-54.065,43.985-98.05,98.051-98.05c54.064,0,98.05,43.985,98.05,98.05    C486.821,186.191,442.836,230.172,388.771,230.172z M388.771,54.082c-43.037,0-78.051,35.013-78.051,78.05l0.001,0.235    c0.007,0.138,0.009,0.223,0.01,0.361c0.24,32.773,21.16,62.115,52.056,73.013c8.323,2.94,17.063,4.431,25.984,4.431    c43.037,0,78.05-35.009,78.05-78.04C466.821,89.095,431.809,54.082,388.771,54.082z" fill="#444B54"/></g><g><g><path d="M362.882,168.016c-2.56,0-5.118-0.976-7.071-2.929c-3.905-3.905-3.905-10.237,0-14.142l51.779-51.778     c3.908-3.905,10.238-3.905,14.143,0c3.905,3.905,3.905,10.237,0,14.142l-51.779,51.778     C368,167.04,365.44,168.016,362.882,168.016z" fill="#444B54"/></g><g><path d="M414.661,168.017c-2.56,0-5.118-0.976-7.071-2.929l-51.779-51.78c-3.905-3.905-3.905-10.237,0-14.142     c3.908-3.905,10.238-3.905,14.143,0l51.779,51.78c3.905,3.905,3.905,10.237,0,14.142     C419.779,167.041,417.22,168.017,414.661,168.017z" fill="#444B54"/></g></g><g><path d="M123.229,230.675c-11.196,0-22.178-1.875-32.642-5.571c-38.763-13.673-65.029-50.458-65.397-91.566    c-0.01-0.3-0.012-0.606-0.012-0.902c0-54.065,43.985-98.05,98.051-98.05c54.065,0,98.05,43.985,98.05,98.05    C221.279,186.694,177.294,230.675,123.229,230.675z M123.229,54.585c-43.037,0-78.051,35.013-78.051,78.05l0.001,0.235    c0.007,0.138,0.008,0.223,0.009,0.361c0.241,32.773,21.161,62.115,52.057,73.013c8.322,2.94,17.063,4.431,25.984,4.431    c43.037,0,78.05-35.009,78.05-78.04C201.279,89.598,166.266,54.585,123.229,54.585z" fill="#444B54"/></g><g><path d="M107.75,171.171c-0.29,0-0.581-0.013-0.873-0.038c-2.944-0.258-5.623-1.805-7.318-4.225l-23.02-32.866    c-3.168-4.523-2.069-10.759,2.454-13.928c4.524-3.168,10.759-2.07,13.928,2.454l16.186,23.109l45.555-45.526    c3.906-3.904,10.238-3.902,14.142,0.004c3.904,3.906,3.902,10.238-0.004,14.142l-53.98,53.947    C112.935,170.126,110.388,171.171,107.75,171.171z" fill="#444B54"/></g><g><path d="M371.966,477.918c-0.006,0-0.014-0.001-0.02,0c-0.011,0-0.021,0-0.033,0l-115.786-0.379    c-4.966-0.016-9.168-3.675-9.868-8.592l-10.943-76.941l-12.522-13.376l-72.916-9.094c-5.228-0.652-9.054-5.249-8.745-10.509    l1.946-33.171c0.284-4.841,4-8.78,8.816-9.346l80.288-9.431l-1.621-147.996c-0.009-0.811,0.081-1.619,0.268-2.408    c0.528-2.236,1.315-4.401,2.338-6.436c0.524-1.061,1.104-2.083,1.742-3.068c5.772-8.898,15.765-14.208,26.731-14.208    c2.037,0,4.092,0.187,6.107,0.554c0.01,0.002,0.019,0.003,0.028,0.005c0.13,0.02,0.26,0.042,0.389,0.068l0.843,0.159    c3.582,0.667,9.578,1.782,13.786,6.879c7.952,9.63,9.312,26.208,10.021,42.363c0.069,1.569,0.131,2.991,0.204,4.21    c0.008,0.123,0.013,0.247,0.016,0.37l1.372,59.03l81.933,7.04c5.08,0.437,9.019,4.625,9.141,9.723l2.555,106.221    c0.015,0.604-0.025,1.207-0.12,1.803l-6.692,42.296l0.714,53.463c0.02,0.255,0.029,0.513,0.029,0.772    C381.966,473.441,377.489,477.918,371.966,477.918z M264.842,457.567l96.97,0.317l-0.599-44.788    c-0.008-0.568,0.033-1.136,0.122-1.697l6.685-42.243l-2.317-96.357l-81.94-7.04c-5.083-0.437-9.022-4.63-9.141-9.731    l-1.576-67.814c-0.074-1.271-0.14-2.735-0.21-4.345c-0.321-7.299-1.059-24.063-5.037-29.937c-0.64-0.186-1.696-0.382-2.449-0.522    l-0.66-0.125c-0.245-0.037-0.464-0.077-0.657-0.117c-0.793-0.137-1.597-0.207-2.391-0.207c-4.163,0-7.883,1.903-9.951,5.091    c-0.212,0.327-0.417,0.691-0.624,1.11c-0.192,0.383-0.354,0.763-0.489,1.146l1.704,155.543c0.056,5.113-3.754,9.444-8.833,10.041    l-80.894,9.502l-0.907,15.454l67.212,8.383c2.32,0.29,4.465,1.382,6.063,3.089l17.15,18.32c1.403,1.499,2.311,3.393,2.6,5.426    L264.842,457.567z" fill="#444B54"/></g><g><path d="M476.821,132.132c0,48.62-39.43,88.04-88.05,88.04c-10.28,0-20.141-1.76-29.311-5    c-34.02-12-58.45-44.31-58.729-82.37c-0.011-0.22-0.011-0.45-0.011-0.67c0-48.63,39.421-88.05,88.051-88.05    C437.392,44.082,476.821,83.502,476.821,132.132z" fill="#65A0D6"/><path d="M388.771,230.172c-11.196,0-22.179-1.875-32.642-5.571c-38.763-13.673-65.028-50.458-65.396-91.567    c-0.01-0.3-0.013-0.606-0.013-0.902c0-54.065,43.985-98.05,98.051-98.05c54.064,0,98.05,43.985,98.05,98.05    C486.821,186.191,442.836,230.172,388.771,230.172z M388.771,54.082c-43.037,0-78.051,35.013-78.051,78.05l0.001,0.235    c0.007,0.138,0.009,0.223,0.01,0.361c0.24,32.773,21.16,62.115,52.056,73.013c8.323,2.94,17.063,4.431,25.984,4.431    c43.037,0,78.05-35.009,78.05-78.04C466.821,89.095,431.809,54.082,388.771,54.082z" fill="#444B54"/></g><g><g><path d="M362.882,168.016c-2.56,0-5.118-0.976-7.071-2.929c-3.905-3.905-3.905-10.237,0-14.142l51.779-51.778     c3.908-3.905,10.238-3.905,14.143,0c3.905,3.905,3.905,10.237,0,14.142l-51.779,51.778     C368,167.04,365.44,168.016,362.882,168.016z" fill="#444B54"/></g><g><path d="M414.661,168.017c-2.56,0-5.118-0.976-7.071-2.929l-51.779-51.78c-3.905-3.905-3.905-10.237,0-14.142     c3.908-3.905,10.238-3.905,14.143,0l51.779,51.78c3.905,3.905,3.905,10.237,0,14.142     C419.779,167.041,417.22,168.017,414.661,168.017z" fill="#444B54"/></g></g><g><path d="M211.279,132.635c0,48.62-39.43,88.04-88.05,88.04c-10.28,0-20.141-1.76-29.311-5    c-34.02-12-58.45-44.31-58.729-82.37c-0.011-0.22-0.011-0.45-0.011-0.67c0-48.63,39.421-88.05,88.051-88.05    C171.85,44.585,211.279,84.005,211.279,132.635z" fill="#3C74BA"/><path d="M123.229,230.675c-11.196,0-22.178-1.875-32.642-5.571c-38.763-13.673-65.029-50.458-65.397-91.566    c-0.01-0.3-0.012-0.606-0.012-0.902c0-54.065,43.985-98.05,98.051-98.05c54.065,0,98.05,43.985,98.05,98.05    C221.279,186.694,177.294,230.675,123.229,230.675z M123.229,54.585c-43.037,0-78.051,35.013-78.051,78.05l0.001,0.235    c0.007,0.138,0.008,0.223,0.009,0.361c0.241,32.773,21.161,62.115,52.057,73.013c8.322,2.94,17.063,4.431,25.984,4.431    c43.037,0,78.05-35.009,78.05-78.04C201.279,89.598,166.266,54.585,123.229,54.585z" fill="#444B54"/></g><g><path d="M107.75,171.171c-0.29,0-0.581-0.013-0.873-0.038c-2.944-0.258-5.623-1.805-7.318-4.225l-23.02-32.866    c-3.168-4.523-2.069-10.759,2.454-13.928c4.524-3.168,10.759-2.07,13.928,2.454l16.186,23.109l45.555-45.526    c3.906-3.904,10.238-3.902,14.142,0.004c3.904,3.906,3.902,10.238-0.004,14.142l-53.98,53.947    C112.935,170.126,110.388,171.171,107.75,171.171z" fill="#444B54"/></g><g><path d="M371.946,467.918l-115.787-0.379l-11.388-80.064l-17.15-18.32l-76.506-9.542l0,0l1.946-33.171    l89.219-10.48l-1.604-146.388l-0.115-10.599c0.341-1.444,0.854-2.88,1.541-4.245c0.354-0.716,0.748-1.425,1.198-2.119    c4.873-7.511,13.879-10.857,22.653-9.257c0.097,0.021,0.193,0.043,0.299,0.051c3.035,0.591,6.724,1.039,8.83,3.59    c7.457,9.031,7.369,31.091,7.955,40.809l0,0l1.58,67.993l0,0l90.865,7.807l0,0l2.555,106.22l-6.826,43.14L371.946,467.918z" fill="#D9DCE1"/><path d="M371.966,477.918c-0.006,0-0.014-0.001-0.02,0c-0.011,0-0.021,0-0.033,0l-115.786-0.379    c-4.966-0.016-9.168-3.675-9.868-8.592l-10.943-76.941l-12.522-13.376l-72.916-9.094c-5.228-0.652-9.054-5.249-8.745-10.509    l1.946-33.171c0.284-4.841,4-8.78,8.816-9.346l80.288-9.431l-1.621-147.996c-0.009-0.811,0.081-1.619,0.268-2.408    c0.528-2.236,1.315-4.401,2.338-6.436c0.524-1.061,1.104-2.083,1.742-3.068c5.772-8.898,15.765-14.208,26.731-14.208    c2.037,0,4.092,0.187,6.107,0.554c0.01,0.002,0.019,0.003,0.028,0.005c0.13,0.02,0.26,0.042,0.389,0.068l0.843,0.159    c3.582,0.667,9.578,1.782,13.786,6.879c7.952,9.63,9.312,26.208,10.021,42.363c0.069,1.569,0.131,2.991,0.204,4.21    c0.008,0.123,0.013,0.247,0.016,0.37l1.372,59.03l81.933,7.04c5.08,0.437,9.019,4.625,9.141,9.723l2.555,106.221    c0.015,0.604-0.025,1.207-0.12,1.803l-6.692,42.296l0.714,53.463c0.02,0.255,0.029,0.513,0.029,0.772    C381.966,473.441,377.489,477.918,371.966,477.918z M264.842,457.567l96.97,0.317l-0.599-44.788    c-0.008-0.568,0.033-1.136,0.122-1.697l6.685-42.243l-2.317-96.357l-81.94-7.04c-5.083-0.437-9.022-4.63-9.141-9.731    l-1.576-67.814c-0.074-1.271-0.14-2.735-0.21-4.345c-0.321-7.299-1.059-24.063-5.037-29.937c-0.64-0.186-1.696-0.382-2.449-0.522    l-0.66-0.125c-0.245-0.037-0.464-0.077-0.657-0.117c-0.793-0.137-1.597-0.207-2.391-0.207c-4.163,0-7.883,1.903-9.951,5.091    c-0.212,0.327-0.417,0.691-0.624,1.11c-0.192,0.383-0.354,0.763-0.489,1.146l1.704,155.543c0.056,5.113-3.754,9.444-8.833,10.041    l-80.894,9.502l-0.907,15.454l67.212,8.383c2.32,0.29,4.465,1.382,6.063,3.089l17.15,18.32c1.403,1.499,2.311,3.393,2.6,5.426    L264.842,457.567z" fill="#444B54"/></g></g></svg>